<svg width="30" height="30" viewBox="0 0 30 30" fill="none" xmlns="http://www.w3.org/2000/svg">
<path d="M18.75 13.125C18.75 14.1196 18.3549 15.0734 17.6517 15.7767C16.9484 16.4799 15.9946 16.875 15 16.875C14.0054 16.875 13.0516 16.4799 12.3483 15.7767C11.6451 15.0734 11.25 14.1196 11.25 13.125C11.25 12.1304 11.6451 11.1766 12.3483 10.4733C13.0516 9.77009 14.0054 9.375 15 9.375C15.9946 9.375 16.9484 9.77009 17.6517 10.4733C18.3549 11.1766 18.75 12.1304 18.75 13.125Z" stroke="#F6EBDD" stroke-width="1.5" stroke-linecap="round" stroke-linejoin="round"/>
<path d="M24.375 13.125C24.375 22.0525 15 27.1875 15 27.1875C15 27.1875 5.625 22.0525 5.625 13.125C5.625 10.6386 6.61272 8.25403 8.37087 6.49587C10.129 4.73772 12.5136 3.75 15 3.75C17.4864 3.75 19.871 4.73772 21.6291 6.49587C23.3873 8.25403 24.375 10.6386 24.375 13.125Z" stroke="#F6EBDD" stroke-width="1.5" stroke-linecap="round" stroke-linejoin="round"/>
</svg>
