<svg width="30" height="31" viewBox="0 0 30 31" fill="none" xmlns="http://www.w3.org/2000/svg">
<path d="M27.1875 8.9375V22.0625C27.1875 22.8084 26.8912 23.5238 26.3637 24.0512C25.8363 24.5787 25.1209 24.875 24.375 24.875H5.625C4.87908 24.875 4.16371 24.5787 3.63626 24.0512C3.10882 23.5238 2.8125 22.8084 2.8125 22.0625V8.9375M27.1875 8.9375C27.1875 8.19158 26.8912 7.47621 26.3637 6.94876C25.8363 6.42132 25.1209 6.125 24.375 6.125H5.625C4.87908 6.125 4.16371 6.42132 3.63626 6.94876C3.10882 7.47621 2.8125 8.19158 2.8125 8.9375M27.1875 8.9375V9.24125C27.1876 9.72143 27.0647 10.1936 26.8305 10.6129C26.5964 11.0321 26.2588 11.3844 25.85 11.6363L16.475 17.405C16.0315 17.6782 15.5209 17.8228 15 17.8228C14.4791 17.8228 13.9685 17.6782 13.525 17.405L4.15 11.6375C3.74115 11.3857 3.40359 11.0334 3.16946 10.6141C2.93534 10.1949 2.81245 9.72268 2.8125 9.2425V8.9375" stroke="#F6EBDD" stroke-width="1.5" stroke-linecap="round" stroke-linejoin="round"/>
</svg>
