<svg width="4238" height="422" viewBox="0 0 4238 422" fill="none" xmlns="http://www.w3.org/2000/svg">
<path d="M179.318 3.36248H157.698C159.14 7.20528 159.62 11.0481 159.62 15.3713C159.62 19.2141 159.14 23.0569 157.698 27.3801L32.7833 388.124C27.4985 403.496 15.4874 415.024 0.113281 419.347H54.8837C44.7944 416.465 38.0682 406.858 38.0682 397.251C38.0682 394.849 38.5487 392.448 39.5095 389.566L64.0121 318.473H266.759L291.742 392.448C292.703 394.849 292.703 397.251 292.703 399.653C292.703 408.299 287.418 416.465 278.77 419.347H343.629C336.423 416.946 330.177 413.103 324.892 408.299C319.607 403.496 315.283 397.251 312.881 390.046L179.318 3.36248ZM66.4143 311.749L165.385 25.939L264.357 311.749H66.4143Z" fill="#DFCECF" fill-opacity="0.3"/>
<path d="M646.586 142.184L710.965 42.7513C709.524 41.3103 707.602 39.8692 705.68 38.9085C673.01 15.8516 634.094 1.92142 591.815 0.48035H583.167C466.42 0.48035 371.292 94.6293 371.292 210.875C371.292 313.67 434.23 367.95 485.638 394.849C516.866 411.181 551.458 419.347 586.05 419.347H699.434V310.788L695.11 367.95C695.11 371.312 694.15 374.194 693.669 377.557C691.747 384.762 687.904 391.487 683.099 396.771C674.451 406.378 661.96 412.622 648.027 412.622H591.815C541.849 412.622 492.844 394.849 455.85 361.225C421.739 330.963 391.951 283.408 391.951 210.875C391.951 98.4722 477.951 7.20527 583.167 7.20527H590.854C599.983 7.68565 608.631 8.64634 617.279 10.0874C629.77 12.4892 641.301 16.332 652.832 20.6551C671.088 28.3408 682.138 46.1138 682.138 64.3672C682.138 72.5332 679.736 80.6992 675.412 88.3848L646.586 142.184Z" fill="#DFCECF" fill-opacity="0.3"/>
<path d="M1062.46 3.36248C1075.91 7.20528 1084.56 19.6944 1084.56 33.1443V211.355H824.642V33.1443C824.642 19.6944 833.77 7.20528 846.742 3.36248H781.883C795.335 7.20528 803.983 19.6944 803.983 33.1443V389.085C803.983 403.015 795.335 415.024 781.883 419.347H846.742C833.77 415.024 824.642 403.015 824.642 389.085V218.08H1084.56V389.085C1084.56 403.015 1075.91 415.024 1062.46 419.347H1127.32C1114.35 415.024 1105.22 403.015 1105.22 389.085V33.1443C1105.22 19.6944 1114.35 7.20528 1127.32 3.36248H1062.46Z" fill="#DFCECF" fill-opacity="0.3"/>
<path d="M1192.47 3.36248C1205.93 7.20528 1214.57 19.6944 1214.57 33.1443V389.085C1214.57 403.015 1205.93 415.024 1192.47 419.347H1257.33C1244.36 415.024 1235.23 403.015 1235.23 389.085V33.1443C1235.23 19.6944 1244.36 7.20528 1257.33 3.36248H1192.47Z" fill="#DFCECF" fill-opacity="0.3"/>
<path d="M1565.37 10.5678C1590.35 10.5678 1611.01 29.7818 1612.45 54.7601L1617.26 111.922V3.36248H1331.88C1338.12 5.76424 1343.89 9.60703 1347.73 14.8909C1351.57 20.1748 1353.5 26.4194 1353.5 33.6246V144.586C1353.5 177.25 1375.6 205.591 1405.38 214.717C1375.6 224.324 1353.5 252.185 1353.5 285.329V389.566C1353.5 403.496 1344.85 415.505 1331.88 419.347H1617.26V311.268L1612.45 367.95C1611.01 392.928 1590.35 412.622 1565.37 412.622H1374.16V269.478C1374.16 241.137 1397.22 218.56 1425.56 218.56H1466.4C1489.94 218.56 1510.6 235.853 1513.96 259.39L1514.44 262.272V167.643L1513.96 170.525C1510.6 194.062 1489.94 211.355 1466.4 211.355H1425.56C1397.22 211.355 1374.16 188.778 1374.16 160.438V10.5678H1565.37Z" fill="#DFCECF" fill-opacity="0.3"/>
<path d="M1849.4 396.771L1722.56 30.2622C1721.6 27.8604 1721.6 25.939 1721.6 23.5373C1721.6 14.8909 1727.36 6.24459 1736.01 3.36248H1671.15C1685.56 7.68565 1696.61 18.2534 1701.42 32.6639L1835.46 419.347H1857.08C1856.12 415.505 1855.16 411.181 1855.16 407.339C1855.16 403.015 1856.12 399.173 1857.08 395.33L1982 34.105C1987.28 19.2141 1999.29 7.68565 2014.67 3.36248H1959.9C1969.99 6.24459 1976.71 15.3713 1976.71 25.4587C1976.71 27.8604 1976.23 30.2622 1975.27 32.6639L1849.4 396.771Z" fill="#DFCECF" fill-opacity="0.3"/>
<path d="M2289.9 10.5678C2314.88 10.5678 2335.54 29.7818 2336.98 54.7601L2341.79 111.922V3.36248H2056.41C2062.65 5.76424 2068.42 9.60703 2072.26 14.8909C2076.1 20.1748 2078.03 26.4194 2078.03 33.6246V144.586C2078.03 177.25 2100.13 205.591 2129.91 214.717C2100.13 224.324 2078.03 252.185 2078.03 285.329V389.566C2078.03 403.496 2069.38 415.505 2056.41 419.347H2341.79V311.268L2336.98 367.95C2335.54 392.928 2314.88 412.622 2289.9 412.622H2098.68V269.478C2098.68 241.137 2121.75 218.56 2150.09 218.56H2190.93C2214.47 218.56 2235.13 235.853 2238.49 259.39L2238.97 262.272V167.643L2238.49 170.525C2235.13 194.062 2214.47 211.355 2190.93 211.355H2150.09C2121.75 211.355 2098.68 188.778 2098.68 160.438V10.5678H2289.9Z" fill="#DFCECF" fill-opacity="0.3"/>
<path d="M2747.83 3.36248L2599.85 345.373L2451.88 3.36248H2416.32C2423.05 5.28387 2429.3 9.60703 2433.62 14.8909C2437.46 20.6551 2439.87 27.8604 2439.87 35.0657V387.644C2439.87 402.055 2430.26 415.024 2416.32 419.347H2471.09C2463.89 417.426 2457.64 413.103 2453.8 407.339C2449.48 401.574 2447.07 394.849 2447.07 387.644V43.712L2592.17 379.958L2747.83 20.6551V389.085C2747.83 403.015 2738.7 415.024 2725.73 419.347H2790.59C2783.86 417.426 2778.58 413.103 2774.73 407.819C2770.89 402.535 2768.49 396.29 2768.49 389.085V33.1443C2768.49 19.6944 2777.14 7.20528 2790.59 3.36248H2747.83Z" fill="#DFCECF" fill-opacity="0.3"/>
<path d="M3098.41 10.5678C3123.4 10.5678 3144.06 29.7818 3145.5 54.7601L3150.3 111.922V3.36248H2864.92C2871.16 5.76424 2876.93 9.60703 2880.77 14.8909C2884.62 20.1748 2886.54 26.4194 2886.54 33.6246V144.586C2886.54 177.25 2908.64 205.591 2938.43 214.717C2908.64 224.324 2886.54 252.185 2886.54 285.329V389.566C2886.54 403.496 2877.89 415.505 2864.92 419.347H3150.3V311.268L3145.5 367.95C3144.06 392.928 3123.4 412.622 3098.41 412.622H2907.2V269.478C2907.2 241.137 2930.26 218.56 2958.6 218.56H2999.44C3022.98 218.56 3043.64 235.853 3047.01 259.39L3047.49 262.272V167.643L3047.01 170.525C3043.64 194.062 3022.98 211.355 2999.44 211.355H2958.6C2930.26 211.355 2907.2 188.778 2907.2 160.438V10.5678H3098.41Z" fill="#DFCECF" fill-opacity="0.3"/>
<path d="M3522.71 15.3713C3527.04 20.6551 3529.44 27.8604 3529.44 35.0657V374.675L3265.19 12.0088L3258.95 3.36248H3224.84C3232.04 5.28387 3237.81 9.60704 3242.13 15.3713C3246.46 20.6551 3248.86 27.8604 3248.86 35.0657V387.644C3248.86 402.055 3239.25 415.024 3224.84 419.347H3279.61C3272.88 417.426 3266.64 413.103 3262.31 407.339C3258.47 401.574 3255.59 394.849 3255.59 387.644V35.0657C3255.59 34.5854 3255.59 34.105 3256.07 33.6246L3536.16 419.347V35.0657C3536.16 20.1748 3546.25 7.20528 3560.19 3.36248H3505.42C3512.62 5.28387 3518.39 9.60704 3522.71 15.3713Z" fill="#DFCECF" fill-opacity="0.3"/>
<path d="M3619.94 111.922L3624.27 54.7601C3625.71 29.7818 3646.37 10.0874 3671.35 10.0874H3751.59V389.085C3751.59 403.015 3742.46 415.024 3729.49 419.347H3794.35C3787.62 417.426 3782.33 413.103 3778.49 407.819C3774.65 402.535 3772.25 396.29 3772.25 389.085V10.0874H3852.48C3877.46 10.0874 3898.12 29.7818 3899.56 54.7601L3904.37 111.922V3.36248H3619.94V111.922Z" fill="#DFCECF" fill-opacity="0.3"/>
<path d="M4209.89 243.538C4204.12 237.294 4196.91 231.049 4189.23 226.726C4150.79 204.63 4112.36 183.014 4074.4 160.918C4051.82 148.429 4024.92 137.381 4008.58 117.206C3999.93 106.158 3995.61 93.6687 3995.61 80.6992C3995.61 68.6903 3998.97 57.1619 4006.18 47.0745C4024.44 19.6944 4060.47 6.24458 4096.02 6.24458C4114.76 6.24458 4133.02 10.0874 4148.87 17.773C4150.79 18.7337 4152.23 19.6944 4154.16 20.6551C4175.29 31.2229 4186.35 47.0745 4186.35 63.8868C4186.35 72.0528 4183.94 80.2188 4178.66 88.3848L4147.43 142.184L4217.09 42.7513C4217.09 38.9085 4169.05 14.4106 4164.73 12.9695C4143.59 4.80352 4120.04 0 4096.5 0C4076.32 0 4056.15 3.36248 4037.89 11.5284C4006.66 24.498 3982.16 49.9566 3980.24 82.6205V87.4241C3980.24 114.804 3996.09 140.263 4020.11 156.114C4040.77 168.123 4123.89 214.237 4144.07 226.246C4162.32 236.814 4183.46 247.381 4197.4 263.233C4210.85 278.604 4217.09 297.338 4217.09 316.552C4217.09 327.6 4215.17 338.648 4210.85 349.216C4197.88 382.841 4156.56 412.622 4108.99 415.505C4103.71 415.985 4098.42 415.985 4093.62 415.985C4069.12 415.985 4046.06 411.662 4018.19 398.212C3998.49 388.124 3989.84 373.234 3989.84 356.902C3989.84 347.295 3993.21 337.207 3998.97 327.6L4031.64 273.32L3964.86 366.989C3964.86 368.43 3993.69 398.692 4041.25 414.544C4057.59 419.828 4074.88 421.749 4092.18 421.749C4097.94 421.749 4103.71 421.749 4109.47 421.269C4130.61 419.828 4153.19 415.985 4172.41 406.378C4201.72 392.448 4223.82 366.989 4232.95 337.687C4235.83 328.561 4237.27 318.954 4237.27 309.347C4237.27 288.692 4230.55 268.517 4217.09 251.704C4214.69 248.822 4212.29 245.94 4209.89 243.538Z" fill="#DFCECF" fill-opacity="0.3"/>
</svg>
