<svg width="4238" height="422" viewBox="0 0 4238 422" fill="none" xmlns="http://www.w3.org/2000/svg">
<path d="M179.933 3.61346H158.314C159.755 7.45625 160.235 11.2991 160.235 15.6223C160.235 19.4651 159.755 23.3079 158.314 27.631L33.3986 388.375C28.1137 403.747 16.1027 415.275 0.728516 419.598H55.4989C45.4096 416.716 38.6835 407.109 38.6835 397.502C38.6835 395.1 39.1639 392.699 40.1248 389.817L64.6273 318.724H267.374L292.357 392.699C293.318 395.1 293.318 397.502 293.318 399.904C293.318 408.55 288.033 416.716 279.385 419.598H344.245C337.038 417.197 330.792 413.354 325.507 408.55C320.223 403.747 315.899 397.502 313.496 390.297L179.933 3.61346ZM67.0295 311.999L166.001 26.19L264.972 311.999H67.0295Z" fill="#DFCECF" fill-opacity="0.3"/>
<path d="M647.201 142.435L711.58 43.0023C710.139 41.5613 708.217 40.1202 706.295 39.1595C673.625 16.1026 634.71 2.17239 592.431 0.731326H583.783C467.035 0.731326 371.908 94.8803 371.908 211.126C371.908 313.921 434.846 368.201 486.253 395.1C517.482 411.432 552.073 419.598 586.665 419.598H700.05V311.039L695.726 368.201C695.726 371.563 694.765 374.445 694.284 377.808C692.363 385.013 688.519 391.738 683.715 397.022C675.067 406.629 662.575 412.873 648.642 412.873H592.431C542.465 412.873 493.46 395.1 456.465 361.476C422.354 331.214 392.567 283.659 392.567 211.126C392.567 98.7231 478.566 7.45625 583.783 7.45625H591.47C600.598 7.93662 609.246 8.89731 617.894 10.3384C630.386 12.7401 641.916 16.5829 653.447 20.9061C671.704 28.5918 682.754 46.3648 682.754 64.6182C682.754 72.7842 680.352 80.9501 676.028 88.6358L647.201 142.435Z" fill="#DFCECF" fill-opacity="0.3"/>
<path d="M1063.08 3.61346C1076.53 7.45625 1085.18 19.9454 1085.18 33.3953V211.606H825.257V33.3953C825.257 19.9454 834.386 7.45625 847.358 3.61346H782.498C795.95 7.45625 804.598 19.9454 804.598 33.3953V389.336C804.598 403.266 795.95 415.275 782.498 419.598H847.358C834.386 415.275 825.257 403.266 825.257 389.336V218.331H1085.18V389.336C1085.18 403.266 1076.53 415.275 1063.08 419.598H1127.94C1114.96 415.275 1105.84 403.266 1105.84 389.336V33.3953C1105.84 19.9454 1114.96 7.45625 1127.94 3.61346H1063.08Z" fill="#DFCECF" fill-opacity="0.3"/>
<path d="M1193.09 3.61346C1206.54 7.45625 1215.19 19.9454 1215.19 33.3953V389.336C1215.19 403.266 1206.54 415.275 1193.09 419.598H1257.95C1244.98 415.275 1235.85 403.266 1235.85 389.336V33.3953C1235.85 19.9454 1244.98 7.45625 1257.95 3.61346H1193.09Z" fill="#DFCECF" fill-opacity="0.3"/>
<path d="M1565.99 10.8187C1590.97 10.8187 1611.63 30.0328 1613.07 55.0111L1617.87 112.173V3.61346H1332.49C1338.74 6.01522 1344.5 9.85801 1348.35 15.1419C1352.19 20.4258 1354.11 26.6703 1354.11 33.8756V144.837C1354.11 177.501 1376.21 205.842 1406 214.968C1376.21 224.575 1354.11 252.436 1354.11 285.58V389.817C1354.11 403.747 1345.46 415.756 1332.49 419.598H1617.87V311.519L1613.07 368.201C1611.63 393.179 1590.97 412.873 1565.99 412.873H1374.77V269.729C1374.77 241.388 1397.83 218.811 1426.18 218.811H1467.02C1490.56 218.811 1511.22 236.104 1514.58 259.641L1515.06 262.523V167.894L1514.58 170.776C1511.22 194.313 1490.56 211.606 1467.02 211.606H1426.18C1397.83 211.606 1374.77 189.029 1374.77 160.689V10.8187H1565.99Z" fill="#DFCECF" fill-opacity="0.3"/>
<path d="M1850.01 397.022L1723.17 30.5132C1722.21 28.1114 1722.21 26.19 1722.21 23.7882C1722.21 15.1419 1727.98 6.49556 1736.63 3.61346H1671.77C1686.18 7.93663 1697.23 18.5043 1702.03 32.9149L1836.08 419.598H1857.7C1856.74 415.756 1855.78 411.432 1855.78 407.59C1855.78 403.266 1856.74 399.424 1857.7 395.581L1982.61 34.356C1987.9 19.4651 1999.91 7.93663 2015.28 3.61346H1960.51C1970.6 6.49556 1977.33 15.6222 1977.33 25.7097C1977.33 28.1114 1976.85 30.5132 1975.89 32.9149L1850.01 397.022Z" fill="#DFCECF" fill-opacity="0.3"/>
<path d="M2290.52 10.8187C2315.5 10.8187 2336.16 30.0328 2337.6 55.0111L2342.4 112.173V3.61346H2057.02C2063.27 6.01522 2069.03 9.85801 2072.88 15.1419C2076.72 20.4258 2078.64 26.6703 2078.64 33.8756V144.837C2078.64 177.501 2100.74 205.842 2130.53 214.968C2100.74 224.575 2078.64 252.436 2078.64 285.58V389.817C2078.64 403.747 2069.99 415.756 2057.02 419.598H2342.4V311.519L2337.6 368.201C2336.16 393.179 2315.5 412.873 2290.52 412.873H2099.3V269.729C2099.3 241.388 2122.36 218.811 2150.71 218.811H2191.54C2215.09 218.811 2235.75 236.104 2239.11 259.641L2239.59 262.523V167.894L2239.11 170.776C2235.75 194.313 2215.09 211.606 2191.54 211.606H2150.71C2122.36 211.606 2099.3 189.029 2099.3 160.689V10.8187H2290.52Z" fill="#DFCECF" fill-opacity="0.3"/>
<path d="M2748.44 3.61346L2600.47 345.624L2452.49 3.61346H2416.94C2423.67 5.53484 2429.91 9.85801 2434.24 15.1419C2438.08 20.9061 2440.48 28.1114 2440.48 35.3167V387.895C2440.48 402.306 2430.87 415.275 2416.94 419.598H2471.71C2464.5 417.677 2458.26 413.354 2454.41 407.59C2450.09 401.825 2447.69 395.1 2447.69 387.895V43.963L2592.78 380.209L2748.44 20.9061V389.336C2748.44 403.266 2739.32 415.275 2726.34 419.598H2791.2C2784.48 417.677 2779.19 413.354 2775.35 408.07C2771.51 402.786 2769.1 396.541 2769.1 389.336V33.3953C2769.1 19.9454 2777.75 7.45625 2791.2 3.61346H2748.44Z" fill="#DFCECF" fill-opacity="0.3"/>
<path d="M3099.03 10.8187C3124.01 10.8187 3144.67 30.0328 3146.11 55.0111L3150.92 112.173V3.61346H2865.53C2871.78 6.01522 2877.54 9.85801 2881.39 15.1419C2885.23 20.4258 2887.15 26.6703 2887.15 33.8756V144.837C2887.15 177.501 2909.25 205.842 2939.04 214.968C2909.25 224.575 2887.15 252.436 2887.15 285.58V389.817C2887.15 403.747 2878.51 415.756 2865.53 419.598H3150.92V311.519L3146.11 368.201C3144.67 393.179 3124.01 412.873 3099.03 412.873H2907.81V269.729C2907.81 241.388 2930.87 218.811 2959.22 218.811H3000.06C3023.6 218.811 3044.26 236.104 3047.62 259.641L3048.1 262.523V167.894L3047.62 170.776C3044.26 194.313 3023.6 211.606 3000.06 211.606H2959.22C2930.87 211.606 2907.81 189.029 2907.81 160.689V10.8187H3099.03Z" fill="#DFCECF" fill-opacity="0.3"/>
<path d="M3523.33 15.6223C3527.65 20.9061 3530.05 28.1114 3530.05 35.3167V374.926L3265.81 12.2598L3259.56 3.61346H3225.45C3232.66 5.53484 3238.42 9.85801 3242.75 15.6223C3247.07 20.9061 3249.47 28.1114 3249.47 35.3167V387.895C3249.47 402.306 3239.87 415.275 3225.45 419.598H3280.22C3273.5 417.677 3267.25 413.354 3262.93 407.59C3259.08 401.825 3256.2 395.1 3256.2 387.895V35.3167C3256.2 34.8363 3256.2 34.356 3256.68 33.8756L3536.78 419.598V35.3167C3536.78 20.4258 3546.87 7.45625 3560.8 3.61346H3506.03C3513.24 5.53484 3519 9.85801 3523.33 15.6223Z" fill="#DFCECF" fill-opacity="0.3"/>
<path d="M3620.56 112.173L3624.88 55.0111C3626.33 30.0328 3646.98 10.3384 3671.97 10.3384H3752.2V389.336C3752.2 403.266 3743.07 415.275 3730.1 419.598H3794.96C3788.23 417.677 3782.95 413.354 3779.11 408.07C3775.26 402.786 3772.86 396.541 3772.86 389.336V10.3384H3853.09C3878.08 10.3384 3898.74 30.0328 3900.18 55.0111L3904.98 112.173V3.61346H3620.56V112.173Z" fill="#DFCECF" fill-opacity="0.3"/>
<path d="M4210.5 243.789C4204.74 237.545 4197.53 231.3 4189.84 226.977C4151.41 204.881 4112.97 183.265 4075.02 161.169C4052.44 148.68 4025.53 137.632 4009.2 117.457C4000.55 106.409 3996.22 93.9196 3996.22 80.9501C3996.22 68.9413 3999.59 57.4129 4006.79 47.3255C4025.05 19.9454 4061.08 6.49556 4096.64 6.49556C4115.37 6.49556 4133.63 10.3384 4149.49 18.024C4151.41 18.9847 4152.85 19.9454 4154.77 20.9061C4175.91 31.4739 4186.96 47.3255 4186.96 64.1378C4186.96 72.3038 4184.56 80.4698 4179.27 88.6358L4148.04 142.435L4217.71 43.0023C4217.71 39.1595 4169.66 14.6616 4165.34 13.2205C4144.2 5.0545 4120.66 0.250977 4097.12 0.250977C4076.94 0.250977 4056.76 3.61345 4038.5 11.7794C4007.27 24.7489 3982.77 50.2076 3980.85 82.8715V87.675C3980.85 115.055 3996.71 140.514 4020.73 156.365C4041.39 168.374 4124.5 214.488 4144.68 226.497C4162.94 237.065 4184.08 247.632 4198.01 263.484C4211.46 278.855 4217.71 297.589 4217.71 316.803C4217.71 327.851 4215.79 338.899 4211.46 349.467C4198.49 383.092 4157.17 412.873 4109.61 415.755C4104.32 416.236 4099.04 416.236 4094.23 416.236C4069.73 416.236 4046.67 411.913 4018.81 398.463C3999.11 388.375 3990.46 373.485 3990.46 357.153C3990.46 347.545 3993.82 337.458 3999.59 327.851L4032.26 273.571L3965.48 367.24C3965.48 368.681 3994.3 398.943 4041.87 414.795C4058.2 420.079 4075.5 422 4092.79 422C4098.56 422 4104.32 422 4110.09 421.52C4131.23 420.079 4153.81 416.236 4173.03 406.629C4202.33 392.699 4224.43 367.24 4233.56 337.938C4236.45 328.812 4237.89 319.205 4237.89 309.598C4237.89 288.943 4231.16 268.768 4217.71 251.955C4215.31 249.073 4212.9 246.191 4210.5 243.789Z" fill="#DFCECF" fill-opacity="0.3"/>
</svg>
