<svg width="1910" height="209" viewBox="0 0 1910 209" fill="none" xmlns="http://www.w3.org/2000/svg">
<path d="M126.766 19.521C107.727 6.50699 85.073 0 62.178 0H0C2.169 0.722991 4.338 1.92799 6.025 3.374C6.748 4.09699 7.471 4.81999 7.953 5.543C9.881 8.19399 11.086 11.568 11.086 14.942V193.523C11.086 200.512 6.507 206.537 0 208.706H63.383C80.735 208.706 98.087 204.609 113.752 196.415C139.539 182.919 170.869 155.686 170.869 104.112C170.869 60.732 148.697 34.704 126.766 19.521ZM160.506 104.112C160.506 140.503 145.805 164.362 128.694 179.545C110.137 196.415 85.555 205.332 60.25 205.332H21.449V3.374H58.563C113.029 3.374 158.819 46.031 160.506 100.256V104.112Z" fill="#DFCECF" fill-opacity="0.45"/>
<path d="M314.354 107.727H318.933C348.817 107.727 372.917 83.627 372.917 53.743C372.917 39.042 366.892 25.546 357.011 15.665C347.371 6.02499 333.875 0 318.933 0H231.209C234.342 0.963988 237.234 2.89199 239.162 5.543C241.09 8.19399 242.295 11.568 242.295 14.942V193.523C242.295 200.512 237.716 206.537 231.209 208.706H263.744C260.37 207.742 257.478 205.573 255.55 202.922C253.622 200.271 252.658 197.138 252.658 193.523V107.727H302.786L345.925 195.933C346.648 197.379 346.889 198.584 346.889 200.03C346.889 203.886 344.479 207.26 340.864 208.706H373.158C366.169 206.537 360.144 201.476 356.77 194.728L314.354 107.727ZM252.658 104.353V3.374H311.944C339.9 3.374 362.554 26.028 362.554 53.743C362.554 67.721 356.77 80.494 347.612 89.411C338.695 98.569 326.404 104.112 312.667 104.353H252.658Z" fill="#DFCECF" fill-opacity="0.45"/>
<path d="M550.597 3.615C563.129 3.615 573.492 13.255 574.215 25.787L576.625 54.466V0H433.471C436.604 1.205 439.496 3.13299 441.424 5.784C443.352 8.43499 444.316 11.568 444.316 15.183V70.854C444.316 87.242 455.402 101.461 470.344 106.04C455.402 110.86 444.316 124.838 444.316 141.467V193.764C444.316 200.753 439.978 206.778 433.471 208.706H576.625V154.481L574.215 182.919C573.492 195.451 563.129 205.332 550.597 205.332H454.679V133.514C454.679 119.295 466.247 107.968 480.466 107.968H500.951C512.76 107.968 523.122 116.644 524.81 128.453L525.051 129.899V82.422L524.81 83.868C523.122 95.677 512.76 104.353 500.951 104.353H480.466C466.247 104.353 454.679 93.026 454.679 78.807V3.615H550.597Z" fill="#DFCECF" fill-opacity="0.45"/>
<path d="M716.681 0H705.836C706.559 1.92799 706.8 3.85599 706.8 6.02499C706.8 7.953 706.559 9.881 705.836 12.05L643.176 193.041C640.525 200.753 634.5 206.537 626.788 208.706H654.262C649.201 207.26 645.827 202.44 645.827 197.62C645.827 196.415 646.068 195.21 646.55 193.764L658.841 158.096H760.543L773.075 195.21C773.557 196.415 773.557 197.62 773.557 198.825C773.557 203.163 770.906 207.26 766.568 208.706H799.103C795.488 207.501 792.355 205.573 789.704 203.163C787.053 200.753 784.884 197.62 783.679 194.005L716.681 0ZM660.046 154.722L709.692 11.327L759.338 154.722H660.046Z" fill="#DFCECF" fill-opacity="0.45"/>
<path d="M1010.4 0L936.174 171.592L861.946 0H844.112C847.486 0.963988 850.619 3.13299 852.788 5.784C854.716 8.67599 855.921 12.291 855.921 15.906V192.8C855.921 200.03 851.101 206.537 844.112 208.706H871.586C867.971 207.742 864.838 205.573 862.91 202.681C860.741 199.789 859.536 196.415 859.536 192.8V20.244L932.318 188.944L1010.4 8.67599V193.523C1010.4 200.512 1005.82 206.537 999.316 208.706H1031.85C1028.48 207.742 1025.83 205.573 1023.9 202.922C1021.97 200.271 1020.76 197.138 1020.76 193.523V14.942C1020.76 8.194 1025.1 1.92799 1031.85 0H1010.4Z" fill="#DFCECF" fill-opacity="0.45"/>
<path d="M1177.79 54.466L1179.96 25.787C1180.69 13.255 1191.05 3.374 1203.58 3.374H1243.83V193.523C1243.83 200.512 1239.25 206.537 1232.74 208.706H1265.28C1261.9 207.742 1259.25 205.573 1257.32 202.922C1255.4 200.271 1254.19 197.138 1254.19 193.523V3.374H1294.44C1306.97 3.374 1317.33 13.255 1318.06 25.787L1320.47 54.466V0H1177.79V54.466Z" fill="#DFCECF" fill-opacity="0.45"/>
<path d="M1491.3 3.615C1503.83 3.615 1514.19 13.255 1514.91 25.787L1517.32 54.466V0H1374.17C1377.3 1.205 1380.2 3.13299 1382.12 5.784C1384.05 8.43499 1385.02 11.568 1385.02 15.183V70.854C1385.02 87.242 1396.1 101.461 1411.04 106.04C1396.1 110.86 1385.02 124.838 1385.02 141.467V193.764C1385.02 200.753 1380.68 206.778 1374.17 208.706H1517.32V154.481L1514.91 182.919C1514.19 195.451 1503.83 205.332 1491.3 205.332H1395.38V133.514C1395.38 119.295 1406.95 107.968 1421.17 107.968H1441.65C1453.46 107.968 1463.82 116.644 1465.51 128.453L1465.75 129.899V82.422L1465.51 83.868C1463.82 95.677 1453.46 104.353 1441.65 104.353H1421.17C1406.95 104.353 1395.38 93.026 1395.38 78.807V3.615H1491.3Z" fill="#DFCECF" fill-opacity="0.45"/>
<path d="M1657.38 0H1646.54C1647.26 1.92799 1647.5 3.85599 1647.5 6.02499C1647.5 7.953 1647.26 9.881 1646.54 12.05L1583.88 193.041C1581.23 200.753 1575.2 206.537 1567.49 208.706H1594.96C1589.9 207.26 1586.53 202.44 1586.53 197.62C1586.53 196.415 1586.77 195.21 1587.25 193.764L1599.54 158.096H1701.24L1713.78 195.21C1714.26 196.415 1714.26 197.62 1714.26 198.825C1714.26 203.163 1711.61 207.26 1707.27 208.706H1739.8C1736.19 207.501 1733.06 205.573 1730.4 203.163C1727.75 200.753 1725.58 197.62 1724.38 194.005L1657.38 0ZM1600.75 154.722L1650.39 11.327L1700.04 154.722H1600.75Z" fill="#DFCECF" fill-opacity="0.45"/>
<path d="M1951.1 0L1876.87 171.592L1802.65 0H1784.81C1788.19 0.963988 1791.32 3.13299 1793.49 5.784C1795.42 8.67599 1796.62 12.291 1796.62 15.906V192.8C1796.62 200.03 1791.8 206.537 1784.81 208.706H1812.29C1808.67 207.742 1805.54 205.573 1803.61 202.681C1801.44 199.789 1800.24 196.415 1800.24 192.8V20.244L1873.02 188.944L1951.1 8.67599V193.523C1951.1 200.512 1946.52 206.537 1940.02 208.706H1972.55C1969.18 207.742 1966.53 205.573 1964.6 202.922C1962.67 200.271 1961.47 197.138 1961.47 193.523V14.942C1961.47 8.194 1965.8 1.92799 1972.55 0H1951.1Z" fill="#DFCECF" fill-opacity="0.45"/>
</svg>
