<svg width="191" height="95" viewBox="0 0 191 95" fill="none" xmlns="http://www.w3.org/2000/svg">
<path d="M25.2737 40.2051L17.7865 27.1961H13.7153L13.7153 40.2051H8.38069L8.38069 7.68255L19.6115 7.68255C22.1072 7.68255 24.213 8.11931 25.9288 8.99281C27.6758 9.86632 28.9705 11.0362 29.8128 12.5024C30.6863 13.9687 31.1231 15.6065 31.1231 17.4159C31.1231 19.5373 30.4991 21.4715 29.2513 23.2185C28.0346 24.9343 26.1472 26.1042 23.5891 26.7281L31.6378 40.2051H25.2737ZM13.7153 22.9377H19.6115C21.6081 22.9377 23.1055 22.4386 24.1038 21.4403C25.1333 20.442 25.648 19.1005 25.648 17.4159C25.648 15.7313 25.1489 14.421 24.1506 13.4851C23.1523 12.518 21.6393 12.0345 19.6115 12.0345L13.7153 12.0345L13.7153 22.9377ZM43.2821 11.9877V21.5339H54.5129L54.5129 25.8858H43.2821V35.8531H55.9167V40.2051H37.9474L37.9474 7.63576L55.9167 7.63576V11.9877L43.2821 11.9877ZM73.2035 40.5326C71.0197 40.5326 69.0543 40.1583 67.3073 39.4096C65.5603 38.6296 64.1876 37.5378 63.1893 36.1339C62.191 34.7301 61.6919 33.0922 61.6919 31.2204H67.4009C67.5257 32.6243 68.0716 33.7786 69.0387 34.6833C70.037 35.588 71.4252 36.0403 73.2035 36.0403C75.0441 36.0403 76.4791 35.6036 77.5086 34.7301C78.5381 33.8254 79.0528 32.6711 79.0528 31.2672C79.0528 30.1753 78.7253 29.2862 78.0701 28.5999C77.4462 27.9136 76.6507 27.3832 75.6836 27.0089C74.7477 26.6345 73.4374 26.229 71.7528 25.7922C69.6314 25.2307 67.9 24.6691 66.5586 24.1076C65.2483 23.5149 64.1252 22.6102 63.1893 21.3935C62.2534 20.1768 61.7855 18.5546 61.7855 16.5268C61.7855 14.655 62.2534 13.0172 63.1893 11.6133C64.1252 10.2095 65.4355 9.1332 67.1201 8.38448C68.8047 7.63576 70.7545 7.2614 72.9695 7.2614C76.1203 7.2614 78.6941 8.05691 80.6907 9.64794C82.7184 11.2078 83.8415 13.3603 84.0599 16.1057H78.1637C78.0701 14.9202 77.5086 13.9063 76.4791 13.064C75.4496 12.2217 74.0926 11.8005 72.4079 11.8005C70.8793 11.8005 69.6314 12.1905 68.6643 12.9704C67.6972 13.7503 67.2137 14.8734 67.2137 16.3396C67.2137 17.3379 67.5101 18.1646 68.1028 18.8198C68.7267 19.4437 69.5067 19.9428 70.4426 20.3172C71.3785 20.6916 72.6575 21.0971 74.2797 21.5339C76.4323 22.1266 78.1793 22.7193 79.5208 23.3121C80.8934 23.9048 82.0477 24.8251 82.9836 26.073C83.9507 27.2897 84.4343 28.9275 84.4343 30.9865C84.4343 32.6399 83.9819 34.1997 83.0772 35.666C82.2037 37.1322 80.909 38.3177 79.1932 39.2224C77.5086 40.0959 75.512 40.5326 73.2035 40.5326ZM96.0635 7.68255V40.2051H90.7289V7.68255L96.0635 7.68255ZM113.69 7.68255C117.153 7.68255 120.179 8.35328 122.768 9.69474C125.389 11.005 127.401 12.908 128.805 15.4037C130.24 17.8683 130.957 20.754 130.957 24.0608C130.957 27.3676 130.24 30.2377 128.805 32.6711C127.401 35.1044 125.389 36.9762 122.768 38.2865C120.179 39.5655 117.153 40.2051 113.69 40.2051L103.067 40.2051V7.68255L113.69 7.68255ZM113.69 35.8531C117.496 35.8531 120.413 34.8237 122.441 32.7647C124.468 30.7057 125.482 27.8044 125.482 24.0608C125.482 20.286 124.468 17.3379 122.441 15.2165C120.413 13.0952 117.496 12.0345 113.69 12.0345H108.402V35.8531L113.69 35.8531ZM141.579 11.9877V21.5339L152.81 21.5339V25.8858L141.579 25.8858V35.8531H154.214V40.2051H136.244V7.63576L154.214 7.63576V11.9877L141.579 11.9877ZM187.504 40.2051H182.17L166.119 15.9185V40.2051H160.784V7.63576L166.119 7.63576L182.17 31.8756V7.63576L187.504 7.63576V40.2051ZM123.347 54.6826V59.0345H114.69V87.2051H109.356V59.0345H100.652V54.6826L123.347 54.6826ZM134.084 54.6826V87.2051L128.75 87.2051V54.6826H134.084ZM160.695 80.5602H147.078L144.738 87.2051H139.17L150.822 54.6358L156.999 54.6358L168.651 87.2051H163.035L160.695 80.5602ZM159.198 76.2083L153.91 61.0935L148.576 76.2083H159.198ZM179.052 82.8999H190.048V87.2051H173.717V54.6826H179.052V82.8999Z" fill="black"/>
<path d="M15.7958 86.6847C15.1426 85.8509 14.5796 85.1676 14.1069 84.6347C13.6342 84.1019 13.1486 83.6549 12.6501 83.2939C12.1429 82.9329 11.6616 82.7524 11.2061 82.7524C10.9311 82.7524 10.7162 82.8169 10.5615 82.9458C10.4068 83.0662 10.3294 83.2467 10.3294 83.4873C10.3294 83.7366 10.4368 83.93 10.6517 84.0675C10.858 84.205 11.1631 84.2695 11.5671 84.2609V86.7104C10.8021 86.6847 10.1704 86.5171 9.67189 86.2076C9.16478 85.8982 8.7952 85.4942 8.56313 84.9957C8.32247 84.4972 8.20214 83.9428 8.20214 83.3326C8.20214 82.2754 8.46429 81.489 8.98858 80.9733C9.51288 80.4576 10.1919 80.1997 11.0256 80.1997C11.9195 80.1997 12.7575 80.5006 13.5396 81.1022C14.3218 81.6953 15.0223 82.4387 15.6411 83.3326V80.1095H17.691V86.6847H15.7958ZM12.9724 79.2027C11.494 79.2027 10.3294 78.9018 9.4785 78.3002C8.62759 77.6985 8.20214 76.7531 8.20214 75.4638C8.20214 74.1746 8.62759 73.2291 9.4785 72.6275C10.3294 72.0173 11.494 71.7121 12.9724 71.7121C14.4679 71.7121 15.6411 72.013 16.492 72.6146C17.3429 73.2163 17.7684 74.166 17.7684 75.4638C17.7684 76.7617 17.3429 77.7114 16.492 78.3131C15.6411 78.9061 14.4679 79.2027 12.9724 79.2027ZM12.9724 74.2133C12.1988 74.2133 11.6101 74.2949 11.2061 74.4582C10.7935 74.6215 10.5873 74.9567 10.5873 75.4638C10.5873 75.971 10.7935 76.3062 11.2061 76.4695C11.6101 76.6328 12.1988 76.7144 12.9724 76.7144C13.7631 76.7144 14.3648 76.6371 14.7773 76.4824C15.1813 76.3191 15.3833 75.9795 15.3833 75.4638C15.3833 74.9481 15.1813 74.6129 14.7773 74.4582C14.3648 74.2949 13.7631 74.2133 12.9724 74.2133ZM15.7958 70.7423C15.1426 69.9086 14.5796 69.2253 14.1069 68.6924C13.6342 68.1595 13.1486 67.7125 12.6501 67.3515C12.1429 66.9906 11.6616 66.8101 11.2061 66.8101C10.9311 66.8101 10.7162 66.8745 10.5615 67.0034C10.4068 67.1238 10.3294 67.3043 10.3294 67.5449C10.3294 67.7942 10.4368 67.9876 10.6517 68.1251C10.858 68.2626 11.1631 68.3271 11.5671 68.3185V70.7681C10.8021 70.7423 10.1704 70.5747 9.67189 70.2653C9.16478 69.9558 8.7952 69.5519 8.56313 69.0534C8.32247 68.5548 8.20214 68.0005 8.20214 67.3902C8.20214 66.333 8.46429 65.5466 8.98858 65.0309C9.51288 64.5152 10.1919 64.2573 11.0256 64.2573C11.9195 64.2573 12.7575 64.5582 13.5396 65.1598C14.3218 65.7529 15.0223 66.4963 15.6411 67.3902V64.1671H17.691V70.7423H15.7958ZM12.9724 63.2603C11.494 63.2603 10.3294 62.9595 9.4785 62.3578C8.62759 61.7562 8.20214 60.8107 8.20214 59.5215C8.20214 58.2322 8.62759 57.2868 9.4785 56.6851C10.3294 56.0749 11.494 55.7697 12.9724 55.7697C14.4679 55.7697 15.6411 56.0706 16.492 56.6722C17.3429 57.2739 17.7684 58.2236 17.7684 59.5215C17.7684 60.8193 17.3429 61.7691 16.492 62.3707C15.6411 62.9638 14.4679 63.2603 12.9724 63.2603ZM12.9724 58.2709C12.1988 58.2709 11.6101 58.3525 11.2061 58.5159C10.7935 58.6792 10.5873 59.0144 10.5873 59.5215C10.5873 60.0286 10.7935 60.3638 11.2061 60.5271C11.6101 60.6904 12.1988 60.772 12.9724 60.772C13.7631 60.772 14.3648 60.6947 14.7773 60.54C15.1813 60.3767 15.3833 60.0372 15.3833 59.5215C15.3833 59.0058 15.1813 58.6706 14.7773 58.5159C14.3648 58.3525 13.7631 58.2709 12.9724 58.2709Z" fill="black"/>
</svg>
