<svg width="1718" height="164" viewBox="0 0 1718 164" fill="none" xmlns="http://www.w3.org/2000/svg">
<path d="M82.926 0.193999C37.728 0.193999 0.900001 36.65 0.900001 81.662C0.900001 126.86 37.728 163.316 82.926 163.316C128.31 163.316 165.138 126.86 165.138 81.662C165.138 37.766 129.984 1.86799 86.274 0.193999H82.926ZM8.898 81.662C8.898 38.138 42.192 2.798 82.926 2.798H83.856C84.414 2.798 85.158 2.984 85.902 3.16999C92.784 4.472 109.338 10.61 109.338 34.976C109.338 50.414 94.83 63.992 79.578 78.314C63.768 93.008 47.586 108.26 47.4 126.488V127.232C47.4 136.346 50.748 144.344 57.072 150.668C60.792 154.388 65.07 157.178 69.162 159.224C34.938 152.342 8.898 120.35 8.898 81.662ZM82.926 160.712C78.834 160.712 67.116 157.178 59.118 148.808C52.98 142.67 50.004 135.23 50.004 126.488C50.19 109.376 66 94.496 81.438 80.174C97.062 65.48 111.942 51.716 111.942 34.976C111.942 17.492 103.758 8.75 96.132 4.28599C95.946 4.09999 95.574 4.09999 95.388 3.914H96.132C130.728 10.61 157.14 42.974 157.14 81.662C157.14 125.372 123.846 160.712 82.926 160.712ZM341.504 13.4C333.878 5.77399 323.462 1.124 312.116 1.124H244.226C246.83 1.86799 248.876 3.54199 250.364 5.588C251.852 7.63399 252.782 10.052 252.782 12.842V150.668C252.782 155.876 249.434 160.712 244.226 162.2H269.336C266.732 161.456 264.686 159.968 263.198 157.922C261.71 155.876 260.78 153.272 260.78 150.668V106.028C260.78 101.936 262.082 97.844 264.314 94.496C265.988 92.078 268.22 89.846 270.824 88.358C275.288 85.754 280.31 84.452 285.704 84.452H312.116C334.994 84.452 353.594 65.666 353.594 42.788C353.594 31.256 348.944 20.84 341.504 13.4ZM334.25 70.316C327.368 77.198 317.696 81.662 307.094 81.662H285.704C281.054 81.662 276.776 82.592 272.87 84.452C269.15 85.94 265.988 88.172 263.198 90.962C262.268 91.706 261.524 92.45 260.78 93.38V3.914H306.722C328.298 3.914 345.596 21.212 345.596 42.788C345.596 53.576 341.318 63.248 334.25 70.316ZM544.184 5.588C545.858 7.81999 546.788 10.61 546.788 13.4V107.144C546.788 134.858 524.282 159.596 496.382 159.596C468.668 159.596 446.162 136.904 446.162 109.19V12.656C446.162 7.44799 449.696 2.61199 454.718 1.124H429.608C432.212 1.86799 434.258 3.35599 435.746 5.402C437.234 7.44799 438.164 10.052 438.164 12.656V106.586C438.164 137.276 463.274 162.572 493.964 162.572C525.584 162.572 549.392 137.648 549.392 106.958V13.4C549.392 7.63399 553.298 2.61199 558.692 1.124H537.488C540.278 1.86799 542.51 3.54199 544.184 5.588ZM694.169 153.458L645.065 11.54C644.693 10.61 644.693 9.866 644.693 8.936C644.693 5.588 646.925 2.24 650.273 1.124H625.163C630.743 2.798 635.021 6.88999 636.881 12.47L688.775 162.2H697.145C696.773 160.712 696.401 159.038 696.401 157.55C696.401 155.876 696.773 154.388 697.145 152.9L745.505 13.028C747.551 7.262 752.201 2.798 758.153 1.124H736.949C740.855 2.24 743.459 5.77399 743.459 9.68C743.459 10.61 743.273 11.54 742.901 12.47L694.169 153.458ZM841.085 159.596V12.656C841.085 10.052 842.015 7.44799 843.503 5.402C844.991 3.35599 847.037 1.86799 849.641 1.124H824.531C829.553 2.61199 833.087 7.44799 833.087 12.656V150.482C833.087 153.272 832.157 155.69 830.669 157.736C829.181 159.782 827.135 161.456 824.531 162.2H927.761V120.164L925.901 142.298C925.529 151.97 917.531 159.596 907.859 159.596H841.085ZM1093.77 3.914C1103.44 3.914 1111.44 11.354 1112 21.026L1113.86 43.16V1.124H1003.37C1005.79 2.054 1008.02 3.54199 1009.51 5.588C1011 7.63399 1011.74 10.052 1011.74 12.842V55.808C1011.74 68.456 1020.3 79.43 1031.83 82.964C1020.3 86.684 1011.74 97.472 1011.74 110.306V150.668C1011.74 156.062 1008.4 160.712 1003.37 162.2H1113.86V120.35L1112 142.298C1111.44 151.97 1103.44 159.596 1093.77 159.596H1019.74V104.168C1019.74 93.194 1028.67 84.452 1039.64 84.452H1055.45C1064.57 84.452 1072.57 91.148 1073.87 100.262L1074.05 101.378V64.736L1073.87 65.852C1072.57 74.966 1064.57 81.662 1055.45 81.662H1039.64C1028.67 81.662 1019.74 72.92 1019.74 61.946V3.914H1093.77ZM1308.25 5.77399C1309.93 7.81999 1310.86 10.61 1310.86 13.4V144.902L1208.56 4.472L1206.14 1.124H1192.93C1195.72 1.86799 1197.96 3.54199 1199.63 5.77399C1201.3 7.81999 1202.23 10.61 1202.23 13.4V149.924C1202.23 155.504 1198.51 160.526 1192.93 162.2H1214.14C1211.53 161.456 1209.12 159.782 1207.44 157.55C1205.95 155.318 1204.84 152.714 1204.84 149.924V13.4C1204.84 13.214 1204.84 13.028 1205.02 12.842L1313.46 162.2V13.4C1313.46 7.63399 1317.37 2.61199 1322.76 1.124H1301.56C1304.35 1.86799 1306.58 3.54199 1308.25 5.77399ZM1504.69 54.878L1529.62 16.376C1529.06 15.818 1528.32 15.26 1527.57 14.888C1514.92 5.95999 1499.86 0.565995 1483.49 0.0079906H1480.14C1434.94 0.0079906 1398.12 36.464 1398.12 81.476C1398.12 121.28 1422.48 142.298 1442.38 152.714C1454.47 159.038 1467.87 162.2 1481.26 162.2H1525.15V120.164L1523.48 142.298C1523.48 143.6 1523.11 144.716 1522.92 146.018C1522.18 148.808 1520.69 151.412 1518.83 153.458C1515.48 157.178 1510.65 159.596 1505.25 159.596H1483.49C1464.15 159.596 1445.17 152.714 1430.85 139.694C1417.65 127.976 1406.11 109.562 1406.11 81.476C1406.11 37.952 1439.41 2.61199 1480.14 2.61199H1483.12C1486.65 2.798 1490 3.16999 1493.35 3.728C1498.18 4.658 1502.65 6.14599 1507.11 7.81999C1514.18 10.796 1518.46 17.678 1518.46 24.746C1518.46 27.908 1517.53 31.07 1515.85 34.046L1504.69 54.878ZM1697.69 3.914C1707.36 3.914 1715.36 11.354 1715.92 21.026L1717.78 43.16V1.124H1607.29C1609.71 2.054 1611.94 3.54199 1613.43 5.588C1614.92 7.63399 1615.66 10.052 1615.66 12.842V55.808C1615.66 68.456 1624.22 79.43 1635.75 82.964C1624.22 86.684 1615.66 97.472 1615.66 110.306V150.668C1615.66 156.062 1612.32 160.712 1607.29 162.2H1717.78V120.35L1715.92 142.298C1715.36 151.97 1707.36 159.596 1697.69 159.596H1623.66V104.168C1623.66 93.194 1632.59 84.452 1643.56 84.452H1659.37C1668.49 84.452 1676.49 91.148 1677.79 100.262L1677.97 101.378V64.736L1677.79 65.852C1676.49 74.966 1668.49 81.662 1659.37 81.662H1643.56C1632.59 81.662 1623.66 72.92 1623.66 61.946V3.914H1697.69Z" fill="black"/>
</svg>
