<svg width="1920" height="441" viewBox="0 0 1920 441" fill="none" xmlns="http://www.w3.org/2000/svg">
<path d="M165.926 0.509766L9.38695 362.378L-147.152 0.509766H-184.762C-177.646 2.54271 -171.039 7.1169 -166.465 12.7076C-162.399 18.8065 -159.858 26.4301 -159.858 34.0538V407.104C-159.858 422.351 -170.023 436.074 -184.762 440.648H-126.822C-134.446 438.615 -141.053 434.041 -145.119 427.942C-149.693 421.843 -152.234 414.727 -152.234 407.104V43.2021L1.25508 398.972L165.926 18.8065V408.629C165.926 423.368 156.269 436.074 142.547 440.648H211.159C204.044 438.615 198.453 434.041 194.387 428.45C190.321 422.859 187.78 416.252 187.78 408.629V32.0208C187.78 17.79 196.928 4.57568 211.159 0.509766H165.926Z" fill="#DFCECF" fill-opacity="0.3"/>
<path d="M518.936 115.373L523.51 54.8917C525.035 28.4631 546.889 7.62516 573.318 7.62516H658.194V408.629C658.194 423.368 648.538 436.074 634.815 440.648H703.428C696.312 438.615 690.722 434.041 686.656 428.45C682.59 422.859 680.049 416.252 680.049 408.629V7.62516H764.925C791.354 7.62516 813.208 28.4631 814.733 54.8917L819.815 115.373V0.509766H518.936V115.373Z" fill="#DFCECF" fill-opacity="0.3"/>
<path d="M1180.08 8.1334C1206.51 8.1334 1228.36 28.4631 1229.89 54.8917L1234.97 115.373V0.509766H933.074C939.681 3.05098 945.78 7.1169 949.846 12.7076C953.912 18.2982 955.945 24.9054 955.945 32.529V149.933C955.945 184.494 979.324 214.48 1010.84 224.137C979.324 234.301 955.945 263.779 955.945 298.848V409.137C955.945 423.876 946.797 436.582 933.074 440.648H1234.97V326.293L1229.89 386.266C1228.36 412.695 1206.51 433.532 1180.08 433.532H977.799V282.076C977.799 252.09 1002.2 228.202 1032.18 228.202H1075.38C1100.29 228.202 1122.14 246.499 1125.7 271.403L1126.21 274.453V174.329L1125.7 177.378C1122.14 202.282 1100.29 220.579 1075.38 220.579H1032.18C1002.2 220.579 977.799 196.691 977.799 166.705V8.1334H1180.08Z" fill="#DFCECF" fill-opacity="0.3"/>
<path d="M1530.33 0.509766H1507.46C1508.99 4.57568 1509.5 8.64163 1509.5 13.2158C1509.5 17.2818 1508.99 21.3477 1507.46 25.9219L1375.32 407.612C1369.73 423.876 1357.02 436.074 1340.76 440.648H1398.7C1388.03 437.598 1380.91 427.434 1380.91 417.269C1380.91 414.727 1381.42 412.186 1382.44 409.137L1408.36 333.917H1622.83L1649.26 412.186C1650.28 414.727 1650.28 417.269 1650.28 419.81C1650.28 428.958 1644.69 437.598 1635.54 440.648H1704.15C1696.53 438.107 1689.92 434.041 1684.33 428.958C1678.74 423.876 1674.17 417.269 1671.63 409.645L1530.33 0.509766ZM1410.9 326.802L1515.6 24.3972L1620.29 326.802H1410.9Z" fill="#DFCECF" fill-opacity="0.3"/>
<path d="M2149.76 0.509766L1993.22 362.378L1836.68 0.509766H1799.07C1806.19 2.54271 1812.79 7.1169 1817.37 12.7076C1821.43 18.8065 1823.98 26.4301 1823.98 34.0538V407.104C1823.98 422.351 1813.81 436.074 1799.07 440.648H1857.01C1849.39 438.615 1842.78 434.041 1838.71 427.942C1834.14 421.843 1831.6 414.727 1831.6 407.104V43.2021L1985.09 398.972L2149.76 18.8065V408.629C2149.76 423.368 2140.1 436.074 2126.38 440.648H2194.99C2187.88 438.615 2182.29 434.041 2178.22 428.45C2174.16 422.859 2171.61 416.252 2171.61 408.629V32.0208C2171.61 17.79 2180.76 4.57568 2194.99 0.509766H2149.76Z" fill="#DFCECF" fill-opacity="0.3"/>
</svg>
